<svg width="24" height="24" viewBox="0 0 24 24" fill="none" xmlns="http://www.w3.org/2000/svg">
<path fill-rule="evenodd" clip-rule="evenodd" d="M2 9V4.5C2 3.11929 3.11929 2 4.5 2H9V0H4.5C2.01472 0 0 2.01472 0 4.5V9H2ZM2 15H0V19.5C0 21.9853 2.01472 24 4.5 24H9V22H4.5C3.11929 22 2 20.8807 2 19.5V15ZM15 22V24H19.5C21.9853 24 24 21.9853 24 19.5V15H22V19.5C22 20.8807 20.8807 22 19.5 22H15ZM22 9H24V4.5C24 2.01472 21.9853 0 19.5 0H15V2H19.5C20.8807 2 22 3.11929 22 4.5V9Z" fill="white"/>
<g clip-path="url(#clip0_5307_116)">
<path fill-rule="evenodd" clip-rule="evenodd" d="M4 5C4 4.44772 4.44772 4 5 4H10C10.5523 4 11 4.44772 11 5V10C11 10.5523 10.5523 11 10 11H5C4.44772 11 4 10.5523 4 10V5ZM10 5H5V10H10V5ZM9 6H6V9H9V6ZM4 14C4 13.4477 4.44772 13 5 13H10C10.5523 13 11 13.4477 11 14V19C11 19.5523 10.5523 20 10 20H5C4.44772 20 4 19.5523 4 19V14ZM10 14H5V19H10V14ZM9 15H6V18H9V15ZM14 4C13.4477 4 13 4.44772 13 5V10C13 10.5523 13.4477 11 14 11H19C19.5523 11 20 10.5523 20 10V5C20 4.44772 19.5523 4 19 4H14ZM14 5H19V10H14V5ZM15 6H18V9H15V6ZM18 16H17V15H16V16H15V17H16V18H17V17H18V16ZM13 13H15V15H13V13ZM18 13H20V15H18V13ZM20 18H18V20H20V18ZM13 18H15V20H13V18Z" fill="white"/>
</g>
<defs>
<clipPath id="clip0_5307_116">
<rect width="16" height="16" fill="white" transform="translate(4 4)"/>
</clipPath>
</defs>
</svg>
