<svg width="24" height="24" viewBox="0 0 24 24" fill="none" xmlns="http://www.w3.org/2000/svg">
<g clip-path="url(#clip0_4897_12987)">
<path d="M11.9558 21.3997C12.1969 21.3997 12.4379 21.3897 12.679 21.3696L13.2415 22.4243C13.362 22.6653 13.6031 22.7859 13.8843 22.7357C14.1555 22.6854 14.3464 22.4845 14.3765 22.2033L14.5574 21.0381C15.0194 20.9176 15.4714 20.7468 15.9134 20.556L16.7772 21.3193C16.9781 21.5002 17.2593 21.5604 17.5205 21.4098C17.7515 21.2792 17.862 21.018 17.7917 20.7367L17.5607 19.6017C17.9424 19.3205 18.3241 19.0091 18.6656 18.6776L19.7303 19.1196C20.0116 19.23 20.2727 19.1598 20.4736 18.9288C20.6343 18.7278 20.6645 18.4466 20.5138 18.2055L19.9011 17.2111C20.1622 16.8193 20.4033 16.3974 20.6243 15.9555L21.7895 15.9957C22.0507 16.0158 22.3118 15.8752 22.3922 15.5939C22.4826 15.3328 22.3922 15.0716 22.1812 14.9009L21.2772 14.1776C21.3977 13.7155 21.4781 13.2334 21.5183 12.7312L22.6131 12.3796C22.8944 12.2892 23.0752 12.0783 23.0752 11.7971C23.0752 11.5057 22.8944 11.3048 22.6131 11.2145L21.5183 10.8629C21.4781 10.3607 21.3977 9.88855 21.2772 9.41644L22.1812 8.68319C22.3821 8.52248 22.4826 8.27136 22.3922 8.0102C22.3118 7.72894 22.0507 7.58832 21.7895 7.60841L20.6243 7.63855C20.4033 7.19658 20.1622 6.78475 19.9011 6.37292L20.5138 5.3785C20.6545 5.15752 20.6343 4.87627 20.4736 4.67537C20.2727 4.4343 20.0116 4.37404 19.7403 4.48453L18.6656 4.90641C18.3241 4.59502 17.9424 4.27359 17.5607 3.99234L17.7917 2.86734C17.852 2.566 17.7515 2.31489 17.5205 2.19435C17.2593 2.04368 16.9781 2.08386 16.7772 2.2747L15.9134 3.02806C15.4714 2.84725 15.0194 2.68654 14.5574 2.55596L14.3765 1.40082C14.3464 1.11957 14.1555 0.918679 13.8843 0.868456C13.6031 0.818233 13.352 0.938768 13.2415 1.16979L12.679 2.22448C12.4379 2.20439 12.1969 2.19435 11.9558 2.19435C11.7046 2.19435 11.4736 2.20439 11.2226 2.22448L10.67 1.16979C10.5495 0.938768 10.3084 0.818233 10.0272 0.868456C9.75599 0.918679 9.58525 1.11957 9.53502 1.40082L9.35421 2.54591C8.89216 2.68654 8.44015 2.84725 7.98814 3.02806L7.13435 2.28475C6.92341 2.08386 6.65221 2.04368 6.381 2.19435C6.16002 2.31489 6.05957 2.566 6.11983 2.86734L6.34082 3.99234C5.96917 4.27359 5.57743 4.59502 5.23591 4.90641L4.17118 4.48453C3.89997 4.37404 3.63881 4.4343 3.43792 4.67537C3.27721 4.87627 3.24707 5.15752 3.38769 5.3785L4.01047 6.37292C3.7493 6.78475 3.51828 7.19658 3.28725 7.63855L2.12207 7.60841C1.85087 7.58832 1.59975 7.72894 1.51939 8.0102C1.42899 8.27136 1.50935 8.52248 1.73033 8.68319L2.63435 9.41644C2.51381 9.88855 2.43345 10.3607 2.40332 10.8629L1.28836 11.2145C1.00711 11.2948 0.856445 11.5057 0.856445 11.7971C0.856445 12.0883 1.00711 12.2892 1.28836 12.3796L2.40332 12.7312C2.43345 13.2334 2.51381 13.7155 2.63435 14.1776L1.73033 14.9009C1.50935 15.0716 1.42899 15.3328 1.51939 15.5939C1.59975 15.8752 1.85087 16.0158 2.12207 15.9957L3.28725 15.9555C3.51828 16.3974 3.7493 16.8193 4.01047 17.2111L3.39774 18.2055C3.25711 18.4466 3.26716 18.7278 3.43792 18.9288C3.63881 19.1598 3.89997 19.23 4.18123 19.1196L5.23591 18.6776C5.57743 19.0091 5.96917 19.3205 6.34082 19.6017L6.11983 20.7367C6.06961 21.018 6.16002 21.2792 6.381 21.4098C6.65221 21.5604 6.92341 21.5002 7.13435 21.3193L7.98814 20.556C8.44015 20.7468 8.89216 20.9176 9.35421 21.0481L9.53502 22.2033C9.58525 22.4845 9.75599 22.6854 10.0272 22.7357C10.3084 22.7859 10.5495 22.6653 10.67 22.4243L11.2226 21.3696C11.4636 21.3897 11.7046 21.3997 11.9558 21.3997ZM11.9558 19.7826C7.49595 19.7826 4.08078 16.2468 4.08078 11.8071C4.08078 7.3573 7.49595 3.81154 11.9558 3.81154C16.4156 3.81154 19.8509 7.3573 19.8509 11.8071C19.8509 16.2468 16.4156 19.7826 11.9558 19.7826ZM10.208 10.2602L11.3933 9.50686L8.03837 3.75127L6.80287 4.44435L10.208 10.2602ZM14.1957 12.48H20.8754V11.0939H14.1957V12.48ZM11.4134 14.1173L10.2381 13.354L6.70243 19.1196L7.92787 19.8428L11.4134 14.1173ZM11.9357 14.4388C13.3922 14.4388 14.5674 13.2736 14.5674 11.8171C14.5674 10.3607 13.3922 9.18542 11.9357 9.18542C10.4792 9.18542 9.31404 10.3607 9.31404 11.8171C9.31404 13.2736 10.4792 14.4388 11.9357 14.4388ZM11.9357 12.9321C11.3029 12.9321 10.8107 12.46 10.8107 11.8171C10.8107 11.1743 11.3029 10.6821 11.9357 10.6821C12.5786 10.6821 13.0707 11.1743 13.0707 11.8171C13.0707 12.46 12.5786 12.9321 11.9357 12.9321Z" fill="#666666"/>
</g>
<defs>
<clipPath id="clip0_4897_12987">
<rect width="22.2188" height="21.8897" fill="white" transform="translate(0.857422 0.857117)"/>
</clipPath>
</defs>
</svg>
