<svg width="80" height="80" viewBox="0 0 80 80" fill="none" xmlns="http://www.w3.org/2000/svg">
<path fill-rule="evenodd" clip-rule="evenodd" d="M26.6673 28.3327H40.0007C44.603 28.3327 48.334 32.0636 48.334 36.666V60.0001C48.334 64.6024 44.603 68.3334 40.0007 68.3334H26.6673C22.0649 68.3334 18.334 64.6024 18.334 60.0001V36.666C18.334 32.0636 22.0649 28.3327 26.6673 28.3327ZM13.334 36.666C13.334 29.3022 19.3035 23.3327 26.6673 23.3327H40.0007C45.9109 23.3327 50.923 27.1781 52.6714 32.5035C55.5037 32.5466 58.507 32.9237 61.0118 34.1121C62.5987 34.8649 64.0507 35.9739 65.094 37.5765C66.1413 39.1853 66.6673 41.1239 66.6673 43.3522C66.6673 51.9345 62.5165 61.2484 52.7808 63.8132C51.1405 69.3189 46.0394 73.3334 40.0007 73.3334H26.6673C19.3035 73.3334 13.334 67.3639 13.334 60.0001V36.666ZM53.334 58.3385C58.891 55.9181 61.6673 49.9332 61.6673 43.3522C61.6673 41.9287 61.3399 40.9744 60.9037 40.3043C60.4634 39.6281 59.8019 39.0722 58.8686 38.6294C57.4248 37.9444 55.5076 37.6121 53.334 37.524V58.3385Z" fill="#666666"/>
<path d="M23.3312 8.33334C23.3312 8.33334 19.6736 11.0091 19.9979 13.3333C20.4002 16.2162 27.0148 13.777 26.6646 16.6667C26.3822 18.9964 21.6646 20 21.6646 20M35.0003 8.33334C35.0003 8.33334 32.1272 9.36549 31.667 11.6667C31.2068 13.9679 35.4606 14.3655 35.0003 16.6667C34.6393 18.4719 31.667 20 31.667 20M46.667 8.33334C46.667 8.33334 40.8563 8.8846 40.0003 11.6667C39.0433 14.7771 46.9983 15.7645 45.0003 18.3333C44.1068 19.4822 41.667 20 41.667 20" stroke="#666666" stroke-width="3.33333" stroke-linecap="round"/>
</svg>
