<svg width="24" height="24" viewBox="0 0 24 24" fill="none" xmlns="http://www.w3.org/2000/svg">
<path d="M6.00002 6.5998C6.00002 3.94884 8.14906 1.7998 10.8 1.7998C13.4509 1.7998 15.6 3.94884 15.6 6.5998C15.6 8.04216 14.9639 9.33592 13.9567 10.2158C13.912 10.2523 13.8677 10.2896 13.8239 10.3278C12.9985 10.9981 11.9461 11.3998 10.8 11.3998C8.14906 11.3998 6.00002 9.25077 6.00002 6.5998ZM12.2715 12.5998H4.8105C3.4838 12.5998 2.40002 13.6641 2.40002 14.9998C2.40002 17.0292 3.3994 18.5594 4.96201 19.5557C5.93564 20.1765 7.12381 20.59 8.4292 20.8098C8.30286 19.9068 8.58693 18.9574 9.28136 18.263L12.0622 15.4822C11.8721 14.5257 11.9416 13.527 12.2715 12.5998ZM17.8699 10.2283C18.3099 10.2795 18.4357 10.8056 18.1225 11.1188L16.9524 12.289C16.2459 12.9954 16.2459 14.141 16.9524 14.8474C17.6589 15.554 18.8044 15.554 19.5108 14.8474L20.6809 13.6773C20.9943 13.3641 21.5203 13.49 21.5716 13.9299C21.7157 15.1674 21.313 16.4565 20.3637 17.4058C19.173 18.5966 17.4479 18.9272 15.9604 18.3978L12.6883 21.6699C11.9818 22.3764 10.8364 22.3764 10.1299 21.6699C9.4234 20.9634 9.4234 19.818 10.1299 19.1115L13.402 15.8394C12.8727 14.3519 13.2033 12.6268 14.394 11.4362C15.3433 10.4868 16.6324 10.0842 17.8699 10.2283Z" fill="#B3B3B3"/>
</svg>
