<svg width="35" height="29" viewBox="0 0 35 29" fill="none" xmlns="http://www.w3.org/2000/svg">
<g clip-path="url(#clip0_5026_2557)">
<path d="M8.22994 14.5614C10.0982 14.5614 11.7255 12.8739 11.7255 10.6942C11.7255 8.52455 10.0882 6.9375 8.22994 6.9375C6.36165 6.9375 4.72437 8.56473 4.72437 10.7143C4.72437 12.8739 6.3516 14.5614 8.22994 14.5614ZM2.62504 23.6317H13.8148C15.0905 23.6317 15.5826 23.1295 15.5826 22.2154C15.5826 19.4431 12.75 16.0982 8.2199 16.0982C3.68977 16.0982 0.857178 19.4431 0.857178 22.2154C0.857178 23.1295 1.35941 23.6317 2.62504 23.6317Z" fill="#B3B3B3"/>
<path d="M13.4732 24.9978H26.0992C28.7409 24.9978 29.6048 23.7221 29.6048 22.2958C29.6048 18.9208 25.7376 14.7623 19.7811 14.7623C13.8347 14.7623 9.96753 18.9208 9.96753 22.2958C9.96753 23.7221 10.8314 24.9978 13.4732 24.9978Z" fill="white"/>
<path d="M19.7913 14.3304C21.9509 14.3304 23.8091 12.4018 23.8091 9.89064C23.8091 7.40958 21.9409 5.57141 19.7913 5.57141C17.6417 5.57141 15.7734 7.44976 15.7734 9.9107C15.7734 12.4018 17.6317 14.3304 19.7913 14.3304ZM13.4733 23.6317H26.0993C27.6764 23.6317 28.2388 23.1797 28.2388 22.2957C28.2388 19.7042 24.9945 16.1283 19.7812 16.1283C14.5781 16.1283 11.3337 19.7042 11.3337 22.2957C11.3337 23.1797 11.8962 23.6317 13.4733 23.6317Z" fill="#B3B3B3"/>
<path d="M28.3394 28.7845C31.8751 28.7845 34.8182 25.8516 34.8182 22.3158C34.8182 18.76 31.8951 15.837 28.3394 15.837C24.7936 15.837 21.8706 18.76 21.8706 22.3158C21.8706 25.8816 24.7836 28.7845 28.3394 28.7845Z" fill="white"/>
<path d="M27.9074 27.509H28.7713C29.0827 27.509 29.3237 27.3281 29.3941 27.0067L29.6351 26.0223C29.7757 25.9821 29.9365 25.9119 30.077 25.8415L30.9409 26.3638C31.202 26.5346 31.4934 26.5346 31.7344 26.2935L32.327 25.6909C32.538 25.4698 32.5581 25.1786 32.3874 24.8873L31.8751 24.0234C31.9554 23.8828 31.9956 23.7522 32.0458 23.6116L33.0403 23.3805C33.3517 23.3002 33.5525 23.0591 33.5525 22.7478V21.894C33.5525 21.5926 33.3415 21.3717 33.0403 21.2913L32.0659 21.0502C31.9956 20.8795 31.9353 20.759 31.8851 20.6384L32.4275 19.7445C32.5882 19.4833 32.5581 19.1619 32.3472 18.9609L31.7344 18.3683C31.5034 18.1373 31.202 18.0971 30.951 18.2578L30.077 18.8103C29.9063 18.7198 29.7757 18.6797 29.6351 18.6295L29.3941 17.625C29.3237 17.3236 29.0827 17.1228 28.7713 17.1228H27.9074C27.596 17.1228 27.3449 17.3337 27.2746 17.625L27.0536 18.6195C26.8729 18.6797 26.7422 18.7198 26.5915 18.8103L25.7177 18.2578C25.4867 18.1071 25.1653 18.1373 24.9443 18.3683L24.3517 18.9609C24.1407 19.1719 24.0703 19.4833 24.2411 19.7445L24.7936 20.6384C24.7434 20.759 24.6831 20.8995 24.6127 21.0502L23.6384 21.2913C23.3371 21.3717 23.1362 21.6027 23.1362 21.894V22.7478C23.1362 23.0591 23.3371 23.3002 23.6384 23.3805L24.6229 23.6116C24.6931 23.7522 24.7434 23.8828 24.8036 24.0234L24.2913 24.8973C24.1206 25.1786 24.1507 25.4799 24.3617 25.6909L24.9443 26.2935C25.1653 26.5346 25.4665 26.5346 25.7377 26.3638L26.6117 25.8415C26.7824 25.9319 26.913 25.9821 27.0536 26.0223L27.2746 27.0067C27.3449 27.3081 27.596 27.509 27.9074 27.509ZM28.3393 23.9933C27.4052 23.9933 26.6719 23.25 26.6719 22.3259C26.6719 21.4119 27.4052 20.6484 28.3393 20.6384C29.2434 20.6283 30.0168 21.4119 30.0168 22.3259C30.0168 23.25 29.2434 23.9933 28.3393 23.9933Z" fill="#B3B3B3"/>
</g>
<defs>
<clipPath id="clip0_5026_2557">
<rect width="33.9609" height="28.356" fill="white" transform="translate(0.857178 0.428589)"/>
</clipPath>
</defs>
</svg>
