<svg width="24" height="24" viewBox="0 0 24 24" fill="none" xmlns="http://www.w3.org/2000/svg">
<path fill-rule="evenodd" clip-rule="evenodd" d="M4.00002 9.5999V5.9999C4.00002 4.89533 4.89545 3.9999 6.00002 3.9999H9.60002V2.3999H6.00002C4.0118 2.3999 2.40002 4.01168 2.40002 5.9999V9.5999H4.00002ZM4.00002 14.3999H2.40002V17.9999C2.40002 19.9881 4.0118 21.5999 6.00002 21.5999H9.60002V19.9999H6.00002C4.89545 19.9999 4.00002 19.1045 4.00002 17.9999V14.3999ZM14.4 19.9999L14.4 21.5999H18C19.9883 21.5999 21.6 19.9881 21.6 17.9999V14.3999H20V17.9999C20 19.1045 19.1046 19.9999 18 19.9999H14.4ZM20 9.5999H21.6V5.9999C21.6 4.01168 19.9883 2.3999 18 2.3999H14.4L14.4 3.9999H18C19.1046 3.9999 20 4.89533 20 5.9999V9.5999Z" fill="#B3B3B3"/>
<g clip-path="url(#clip0_4548_27351)">
<path fill-rule="evenodd" clip-rule="evenodd" d="M5.6 6.39961C5.6 5.95778 5.95817 5.59961 6.4 5.59961H10.4C10.8418 5.59961 11.2 5.95778 11.2 6.39961V10.3996C11.2 10.8414 10.8418 11.1996 10.4 11.1996H6.4C5.95817 11.1996 5.6 10.8414 5.6 10.3996V6.39961ZM10.4001 6.4002H6.40007V10.4002H10.4001V6.4002ZM9.60007 7.2002H7.20007V9.6002H9.60007V7.2002ZM5.59998 13.5998C5.59998 13.158 5.95815 12.7998 6.39998 12.7998H10.4C10.8418 12.7998 11.2 13.158 11.2 13.5998V17.5998C11.2 18.0416 10.8418 18.3998 10.4 18.3998H6.39997C5.95815 18.3998 5.59998 18.0416 5.59998 17.5998V13.5998ZM10.4001 13.6002H6.40007V17.6002H10.4001V13.6002ZM9.60007 14.4002H7.20007V16.8002H9.60007V14.4002ZM13.6 5.6001C13.1581 5.6001 12.8 5.95827 12.8 6.4001V10.4001C12.8 10.8419 13.1581 11.2001 13.6 11.2001H17.6C18.0418 11.2001 18.4 10.8419 18.4 10.4001V6.4001C18.4 5.95827 18.0418 5.6001 17.6 5.6001H13.6ZM13.6001 6.40049H17.6001V10.4005H13.6001V6.40049ZM14.4001 7.20049H16.8001V9.60049H14.4001V7.20049ZM16.8 12.7998H18.4V14.3998H16.8V12.7998ZM18.4 16.7998H16.8V18.3998H18.4V16.7998ZM12.8 12.7998H14.4V14.3998H12.8V12.7998ZM12.8 16.7998H14.4V18.3998H12.8V16.7998ZM16.8 15.1998H16V14.3998H15.2V15.1998H14.4V15.9998H15.2V16.7998H16V15.9998H16.8V15.1998Z" fill="#B3B3B3"/>
</g>
<defs>
<clipPath id="clip0_4548_27351">
<rect width="12.8" height="12.8" fill="white" transform="translate(5.59998 5.59961)"/>
</clipPath>
</defs>
</svg>
