<svg width="257" height="256" viewBox="0 0 257 256" fill="none" xmlns="http://www.w3.org/2000/svg">
<g filter="url(#filter0_d_605_10347)">
<mask id="path-1-inside-1_605_10347" fill="white">
<path fill-rule="evenodd" clip-rule="evenodd" d="M16.5 98V16H96.5V8H14.5C11.1863 8 8.5 10.6863 8.5 14V98H16.5ZM96.5 240H16.5V98L16.5 158H8.5V242C8.5 245.314 11.1863 248 14.5 248H96.5V240ZM160.5 240V248H242.5C245.814 248 248.5 245.314 248.5 242V158H240.5V240H160.5ZM240.5 98H248.5V14C248.5 10.6863 245.814 8 242.5 8H160.5V16H240.5V98Z"/>
</mask>
<path fill-rule="evenodd" clip-rule="evenodd" d="M16.5 98V16H96.5V8H14.5C11.1863 8 8.5 10.6863 8.5 14V98H16.5ZM96.5 240H16.5V98L16.5 158H8.5V242C8.5 245.314 11.1863 248 14.5 248H96.5V240ZM160.5 240V248H242.5C245.814 248 248.5 245.314 248.5 242V158H240.5V240H160.5ZM240.5 98H248.5V14C248.5 10.6863 245.814 8 242.5 8H160.5V16H240.5V98Z" fill="white"/>
<path d="M16.5 16V15.8H16.3V16H16.5ZM96.5 16V16.2H96.7V16H96.5ZM96.5 8H96.7V7.8H96.5V8ZM8.5 98H8.3V98.2H8.5V98ZM16.5 240H16.3V240.2H16.5V240ZM96.5 240H96.7V239.8H96.5V240ZM16.5 158V158.2H16.7V158H16.5ZM8.5 158V157.8H8.3V158H8.5ZM96.5 248V248.2H96.7V248H96.5ZM160.5 248H160.3V248.2H160.5V248ZM160.5 240V239.8H160.3V240H160.5ZM248.5 158H248.7V157.8H248.5V158ZM240.5 158V157.8H240.3V158H240.5ZM240.5 240V240.2H240.7V240H240.5ZM248.5 98V98.2H248.7V98H248.5ZM240.5 98H240.3V98.2H240.5V98ZM160.5 8V7.8H160.3V8H160.5ZM160.5 16H160.3V16.2H160.5V16ZM240.5 16H240.7V15.8H240.5V16ZM16.3 16V98H16.7V16H16.3ZM96.5 15.8H16.5V16.2H96.5V15.8ZM96.3 8V16H96.7V8H96.3ZM96.5 7.8H14.5V8.2H96.5V7.8ZM14.5 7.8C11.0758 7.8 8.3 10.5758 8.3 14H8.7C8.7 10.7967 11.2967 8.2 14.5 8.2V7.8ZM8.3 14V98H8.7V14H8.3ZM8.5 98.2H16.5V97.8H8.5V98.2ZM16.5 240.2H96.5V239.8H16.5V240.2ZM16.3 98V240H16.7V98H16.3ZM16.3 98L16.3 158H16.7L16.7 98H16.3ZM16.5 157.8H8.5V158.2H16.5V157.8ZM8.3 158V242H8.7V158H8.3ZM8.3 242C8.3 245.424 11.0758 248.2 14.5 248.2V247.8C11.2967 247.8 8.7 245.203 8.7 242H8.3ZM14.5 248.2H96.5V247.8H14.5V248.2ZM96.3 240V248H96.7V240H96.3ZM160.7 248V240H160.3V248H160.7ZM160.5 248.2H242.5V247.8H160.5V248.2ZM242.5 248.2C245.924 248.2 248.7 245.424 248.7 242H248.3C248.3 245.203 245.703 247.8 242.5 247.8V248.2ZM248.7 242V158H248.3V242H248.7ZM240.5 158.2H248.5V157.8H240.5V158.2ZM240.7 240V158H240.3V240H240.7ZM160.5 240.2H240.5V239.8H160.5V240.2ZM248.5 97.8H240.5V98.2H248.5V97.8ZM248.7 98V14H248.3V98H248.7ZM248.7 14C248.7 10.5758 245.924 7.8 242.5 7.8V8.2C245.703 8.2 248.3 10.7967 248.3 14H248.7ZM242.5 7.8H160.5V8.2H242.5V7.8ZM160.7 16V8H160.3V16H160.7ZM240.5 15.8H160.5V16.2H240.5V15.8ZM240.7 98V16H240.3V98H240.7Z" fill="#4D4D4D" mask="url(#path-1-inside-1_605_10347)"/>
</g>
<defs>
<filter id="filter0_d_605_10347" x="0.5" y="0" width="256" height="256" filterUnits="userSpaceOnUse" color-interpolation-filters="sRGB">
<feFlood flood-opacity="0" result="BackgroundImageFix"/>
<feColorMatrix in="SourceAlpha" type="matrix" values="0 0 0 0 0 0 0 0 0 0 0 0 0 0 0 0 0 0 127 0" result="hardAlpha"/>
<feOffset/>
<feGaussianBlur stdDeviation="4"/>
<feComposite in2="hardAlpha" operator="out"/>
<feColorMatrix type="matrix" values="0 0 0 0 0 0 0 0 0 0 0 0 0 0 0 0 0 0 0.5 0"/>
<feBlend mode="normal" in2="BackgroundImageFix" result="effect1_dropShadow_605_10347"/>
<feBlend mode="normal" in="SourceGraphic" in2="effect1_dropShadow_605_10347" result="shape"/>
</filter>
</defs>
</svg>
