<svg width="24" height="24" viewBox="0 0 24 24" fill="none" xmlns="http://www.w3.org/2000/svg">
<g id="Password Reset / undefined">
<path id="Vector" d="M2 6.625C2 4.89911 3.39911 3.5 5.125 3.5H18.875C20.6009 3.5 22 4.89911 22 6.625V14.2571C21.6224 13.9452 21.2024 13.6828 20.75 13.4798V6.625C20.75 5.58945 19.9105 4.75 18.875 4.75H5.125C4.08947 4.75 3.25 5.58945 3.25 6.625V14.375C3.25 15.4106 4.08947 16.25 5.125 16.25H11.9519L13.2019 17.5H5.125C3.39911 17.5 2 16.1009 2 14.375V6.625ZM16.625 12.5C16.4742 12.5 16.336 12.4466 16.228 12.3577C16.1941 12.1531 16.1209 11.9538 16.0084 11.7718C16.0576 11.4757 16.3149 11.25 16.625 11.25H18.875C19.2202 11.25 19.5 11.5298 19.5 11.875C19.5 12.2202 19.2202 12.5 18.875 12.5H16.625ZM13.3839 10.5L14.0059 11.1221C13.8132 11.2014 13.6326 11.3194 13.476 11.476L13.034 11.9179L12.5 11.3839L11.5669 12.3169C11.3229 12.561 10.9271 12.561 10.6831 12.3169C10.439 12.0729 10.439 11.6771 10.6831 11.4331L11.6161 10.5L10.6831 9.56695C10.439 9.32285 10.439 8.92715 10.6831 8.68305C10.9271 8.439 11.3229 8.439 11.5669 8.68305L12.5 9.6161L13.4331 8.68305C13.6771 8.439 14.0729 8.439 14.3169 8.68305C14.561 8.92715 14.561 9.32285 14.3169 9.56695L13.3839 10.5ZM5.18305 8.68305C5.42715 8.439 5.82285 8.439 6.06695 8.68305L7 9.6161L7.93305 8.68305C8.17715 8.439 8.57285 8.439 8.81695 8.68305C9.061 8.92715 9.061 9.32285 8.81695 9.56695L7.8839 10.5L8.81695 11.4331C9.061 11.6771 9.061 12.0729 8.81695 12.3169C8.57285 12.561 8.17715 12.561 7.93305 12.3169L7 11.3839L6.06695 12.3169C5.82285 12.561 5.42715 12.561 5.18305 12.3169C4.93898 12.0729 4.93898 11.6771 5.18305 11.4331L6.1161 10.5L5.18305 9.56695C4.93898 9.32285 4.93898 8.92715 5.18305 8.68305ZM15.0669 13.0669C15.311 12.8229 15.311 12.4271 15.0669 12.1831C14.8229 11.939 14.4271 11.939 14.1831 12.1831L12.1831 14.1831C11.939 14.4271 11.939 14.8229 12.1831 15.0669L14.1831 17.0669C14.4271 17.311 14.8229 17.311 15.0669 17.0669C15.311 16.8229 15.311 16.4271 15.0669 16.1831L14.1339 15.25H18.5C20.2949 15.25 21.75 16.705 21.75 18.5C21.75 20.295 20.2949 21.75 18.5 21.75C16.8847 21.75 15.5436 20.5709 15.2923 19.0266C15.2369 18.6859 14.9158 18.4546 14.5751 18.51C14.2344 18.5654 14.0031 18.8865 14.0586 19.2272C14.4067 21.3668 16.262 23 18.5 23C20.9853 23 23 20.9853 23 18.5C23 16.0147 20.9853 14 18.5 14H14.1339L15.0669 13.0669Z" fill="black"/>
</g>
</svg>
