<svg width="17" height="17" viewBox="0 0 17 17" fill="none" xmlns="http://www.w3.org/2000/svg">
<g clip-path="url(#clip0_5185_658)">
<path d="M0.545686 15.9641C0.897248 16.3057 1.47984 16.3057 1.82136 15.9641L8.24993 9.53552L14.6785 15.9641C15.0201 16.3057 15.6127 16.3157 15.9542 15.9641C16.2957 15.6126 16.2957 15.04 15.9542 14.6985L9.5256 8.25987L15.9542 1.8313C16.2957 1.48978 16.3058 0.907188 15.9542 0.56567C15.6026 0.214107 15.0201 0.214107 14.6785 0.56567L8.24993 6.99425L1.82136 0.56567C1.47984 0.214107 0.887203 0.204063 0.545686 0.56567C0.204168 0.917232 0.204168 1.48978 0.545686 1.8313L6.97426 8.25987L0.545686 14.6985C0.204168 15.04 0.194123 15.6226 0.545686 15.9641Z" fill="white"/>
</g>
<defs>
<clipPath id="clip0_5185_658">
<rect width="15.9283" height="15.9384" fill="white" transform="translate(0.285767 0.285767)"/>
</clipPath>
</defs>
</svg>
