<svg width="24" height="24" viewBox="0 0 24 24" fill="none" xmlns="http://www.w3.org/2000/svg">
<g clip-path="url(#clip0_2427_11534)">
<path d="M4.54556 19.964C4.89713 20.3055 5.47971 20.3055 5.82123 19.964L12.2498 13.5354L18.6784 19.964C19.0199 20.3055 19.6126 20.3156 19.954 19.964C20.2955 19.6125 20.2955 19.0399 19.954 18.6984L13.5255 12.2597L19.954 5.83117C20.2955 5.48965 20.3056 4.90707 19.954 4.56555C19.6024 4.21399 19.0199 4.21399 18.6784 4.56555L12.2498 10.9941L5.82123 4.56555C5.47971 4.21399 4.88708 4.20394 4.54556 4.56555C4.20405 4.91711 4.20405 5.48965 4.54556 5.83117L10.9741 12.2597L4.54556 18.6984C4.20405 19.0399 4.194 19.6225 4.54556 19.964Z" fill="black"/>
</g>
<defs>
<clipPath id="clip0_2427_11534">
<rect width="15.9283" height="15.9384" fill="white" transform="translate(4.28564 4.28564)"/>
</clipPath>
</defs>
</svg>
