<svg width="22" height="22" viewBox="0 0 22 22" fill="none" xmlns="http://www.w3.org/2000/svg">
<g id="pencil.circle" clip-path="url(#clip0_5416_1245)">
<g id="Group">
<path id="Vector" d="M10.9597 21.2054C16.5647 21.2054 21.2053 16.5548 21.2053 10.9599C21.2053 5.35498 16.5547 0.714355 10.9497 0.714355C5.35486 0.714355 0.714233 5.35498 0.714233 10.9599C0.714233 16.5548 5.3649 21.2054 10.9597 21.2054ZM10.9597 19.4979C6.2187 19.4979 2.43187 15.701 2.43187 10.9599C2.43187 6.21882 6.20866 2.42195 10.9497 2.42195C15.6908 2.42195 19.4977 6.21882 19.4977 10.9599C19.4977 15.701 15.7009 19.4979 10.9597 19.4979Z" fill="#2573F3"/>
<path id="Vector_2" d="M7.73547 15.3089L14.3247 8.73978L13.1395 7.55451L6.56024 14.1136L5.9877 15.4496C5.88726 15.7007 6.12833 15.9117 6.34931 15.8313L7.73547 15.3089ZM14.9274 8.14715L15.6507 7.41389C15.9721 7.07237 16.0022 6.71075 15.7009 6.40942L15.4698 6.17839C15.1685 5.87705 14.7969 5.90718 14.4754 6.22861L13.7421 6.95183L14.9274 8.14715Z" fill="#2573F3"/>
</g>
</g>
<defs>
<clipPath id="clip0_5416_1245">
<rect width="20.491" height="20.5011" fill="white" transform="translate(0.714233 0.714355)"/>
</clipPath>
</defs>
</svg>
